HIERARCHY
ROOT Hips
{
    OFFSET 0.000000 0.000000 0.000000
    CHANNELS 6 Xposition Yposition Zposition Zrotation Xrotation Yrotation
        JOINT Chest
        {
            OFFSET -0.000000 26.747992 -0.000000
            CHANNELS 3 Zrotation Xrotation Yrotation
            JOINT Neck
            {
                OFFSET -0.000000 19.168715 0.000000
                CHANNELS 3 Zrotation Xrotation Yrotation
                JOINT Head
                {
                    OFFSET -0.000000 10.083335 0.000000
                    CHANNELS 3 Zrotation Xrotation Yrotation
                    End Site
                    {
                        OFFSET -0.000000 15.583343 0.000000
                    }
                }
            }
            JOINT LeftCollar
            {
                OFFSET -0.000000 19.168715 0.000000
                CHANNELS 3 Zrotation Xrotation Yrotation
                JOINT LeftShoulder
                {
                    OFFSET 19.500000 -0.000000 0.000000
                    CHANNELS 3 Zrotation Xrotation Yrotation
                    JOINT LeftElbow
                    {
                        OFFSET 19.022890 0.000000 0.000000
                        CHANNELS 3 Zrotation Xrotation Yrotation
                        JOINT LeftWrist
                        {
                            OFFSET 24.768559 0.000000 0.000000
                            CHANNELS 3 Zrotation Xrotation Yrotation
                            End Site
                            {
                                OFFSET 0.000000 -13.750003 0.000000
                            }
                        }
                    }
                }
            }
            JOINT RightCollar
            {
                OFFSET -0.000000 19.168715 0.000000
                CHANNELS 3 Zrotation Xrotation Yrotation
                JOINT RightShoulder
                {
                    OFFSET -19.500000 0.000000 0.000000
                    CHANNELS 3 Zrotation Xrotation Yrotation
                    JOINT RightElbow
                    {
                        OFFSET -19.022890 0.000000 0.000000
                        CHANNELS 3 Zrotation Xrotation Yrotation
                        JOINT RightWrist
                        {
                            OFFSET -24.768559 0.000000 0.000000
                            CHANNELS 3 Zrotation Xrotation Yrotation
                            End Site
                            {
                                OFFSET -0.000000 -13.750003 0.000000
                            }
                        }
                    }
                }
            }
        }
    JOINT LeftHip
    {
        OFFSET 11.000002 0.000000 0.000000
        CHANNELS 3 Zrotation Xrotation Yrotation
        JOINT LeftKnee
        {
            OFFSET -0.000000 -39.837296 0.000000
            CHANNELS 3 Zrotation Xrotation Yrotation
            JOINT LeftAnkle
            {
                OFFSET -0.000000 -38.248398 0.000000
                CHANNELS 3 Zrotation Xrotation Yrotation
                End Site
                {
                    OFFSET -0.000000 -4.583334 15.583343
                }
            }
        }
    }
    JOINT RightHip
    {
        OFFSET -11.000002 0.000000 0.000000
        CHANNELS 3 Zrotation Xrotation Yrotation
        JOINT RightKnee
        {
            OFFSET -0.000000 -39.837296 0.000000
            CHANNELS 3 Zrotation Xrotation Yrotation
            JOINT RightAnkle
            {
                OFFSET -0.000000 -38.248398 0.000000
                CHANNELS 3 Zrotation Xrotation Yrotation
                End Site
                {
                    OFFSET -0.000000 -4.583334 15.583343
                }
            }
        }
    }
}
MOTION
Frames:    6
Frame Time:    0.010000
-74.752144    85.479912    -61.139645    9.530022    8.597080    -79.880249    3.029733    6.163627    13.751087    -2.497757    -16.659700    -4.446679    5.857720    -13.040486    -3.412329    -27.102058    -1.321404    4.743346    -2.737969    39.802414    -54.633041    0.753600    -0.119061    -19.073729    121.210564    23.902081    72.232452    18.208969    2.388841    15.493388    20.167025    24.330395    38.093544    13.567897    3.082971    25.915895    -53.016056    -4.400624    1.072866    14.073646    -25.875536    -2.934471    3.188414    6.538424    16.119698    -9.978150    8.628671    6.358958    4.520803    -0.634280    -12.122318    0.396662    -0.535202    -8.569592    6.184252    -8.044778    6.513460    
-74.805580    85.460739    -61.002541    9.596197    8.728123    -79.970909    2.830150    6.169930    14.051454    -2.396136    -17.125927    -4.554257    5.803480    -12.932563    -3.536999    -27.129354    -1.143836    4.007707    -3.009985    38.709496    -54.401367    0.658421    -0.116111    -18.646965    121.277451    23.504936    71.814781    17.861244    2.414191    16.003342    19.697767    23.904755    38.985859    13.400806    3.080634    26.300716    -52.677734    -4.858860    0.496700    14.334602    -25.721783    -2.383525    2.982822    6.190664    16.282898    -9.975607    8.728235    5.984231    4.572447    -0.605106    -11.909623    0.377905    -0.670613    -8.596418    6.128816    -8.049099    6.430984    
-74.863075    85.444054    -60.850109    9.671601    8.842983    -80.047836    2.598542    6.181232    14.328333    -2.319407    -17.618908    -4.671749    5.762556    -12.815601    -3.666713    -27.130028    -0.966586    3.271445    -3.277630    37.587288    -54.205002    0.570785    -0.116431    -18.167538    121.270523    22.993641    71.397240    17.487312    2.437131    16.529701    19.209969    23.468742    39.880356    13.209405    3.065150    26.637457    -52.353821    -5.364733    -0.088168    14.525764    -25.555065    -1.720437    2.801964    5.806502    16.245686    -9.882638    8.794907    5.624266    4.598908    -0.577665    -11.724259    0.352762    -0.809316    -8.652521    6.127643    -8.036498    6.383773    
-74.920776    85.430443    -60.682915    9.766924    8.943983    -80.111351    2.335444    6.185778    14.584596    -2.262976    -18.132950    -4.798388    5.729036    -12.696848    -3.801681    -27.101482    -0.784685    2.533661    -3.545943    36.435196    -54.037640    0.507647    -0.066628    -17.647673    121.177437    22.450443    71.044403    17.086109    2.453179    17.070473    18.708942    23.024937    40.771046    12.985097    3.040736    26.923668    -52.054218    -5.924769    -0.662616    14.638486    -25.391592    -0.992565    2.661202    5.393620    16.010420    -9.721825    8.836851    5.322749    4.600584    -0.570007    -11.567866    0.320195    -0.943012    -8.744378    6.184868    -8.005742    6.376274    
-74.975479    85.420349    -60.501839    9.890181    9.034529    -80.161667    2.043206    6.173072    14.822598    -2.224692    -18.659357    -4.934772    5.698297    -12.584343    -3.942773    -27.041136    -0.607572    1.792109    -3.813030    35.269409    -53.903637    0.457750    -0.086922    -17.091211    121.092728    21.876991    70.677605    16.654974    2.465188    17.620619    18.207182    22.568289    41.647758    12.746998    3.005412    27.149529    -51.801418    -6.534291    -1.173975    14.671788    -25.247602    -0.240392    2.570198    4.963363    15.589931    -9.520128    8.861621    5.111984    4.579699    -0.597007    -11.440755    0.279285    -1.063498    -8.874297    6.298900    -7.957789    6.409089    
-75.024864    85.414085    -60.307968    10.046579    9.118644    -80.199051    1.725138    6.134579    15.044283    -2.201261    -19.188620    -5.079844    5.667260    -12.485067    -4.089604    -26.947517    -0.427160    1.047265    -4.083342    34.093132    -53.791775    0.441798    -0.061438    -16.525856    120.939049    21.385138    70.397293    16.195787    2.466938    18.174633    17.710911    22.103523    42.503178    12.489915    2.967676    27.315279    -51.596004    -7.194835    -1.589541    14.631763    -25.137810    0.501561    2.532092    4.529150    15.010622    -9.305216    8.875960    5.009321    4.539433    -0.669707    -11.343040    0.230007    -1.163081    -9.037966    6.463580    -7.895798    6.477513    
